<svg width="143" height="136" viewBox="0 0 143 136" fill="none" xmlns="http://www.w3.org/2000/svg">
<circle cx="68" cy="68" r="68" fill="#EDEDE3"/>
<path d="M143 116C136.25 115.025 129.758 114.184 123.525 113.477L125.99 109.542C125.159 109.3 121.508 111.543 121.508 111.543L124.744 100.102C120.565 100.499 118.438 112.187 118.438 112.187L113.77 108.211L116.03 112.667C96.9525 110.724 80.4768 109.961 66.6187 109.873L68.7283 106.505C67.8974 106.262 64.2465 108.506 64.2465 108.506L67.482 97.0645C63.3029 97.4617 61.1765 109.149 61.1765 109.149L56.5081 105.173L58.9015 109.894C47.2838 110.032 37.8096 110.644 30.4969 111.358C32.6309 106.105 39.8783 101.134 39.8783 101.134C34.3438 102.468 31.4405 104.733 29.9233 106.85C29.8073 100.353 30.5875 88.3101 36.384 75C36.384 75 24.9419 95.5107 26.3995 109.32L26.5737 111.772C16.8758 112.875 12 114.046 12 114.046L143 116Z" fill="#3F3D56"/>
<path d="M82 25.7524V109.25C81.9979 111.321 80.2945 112.999 78.1935 113H43.8065C42.7969 113.002 41.8281 112.607 41.1139 111.904C40.3997 111.2 39.9989 110.245 40 109.25V25.7524C39.9999 24.7572 40.4009 23.8027 41.1148 23.099C41.8287 22.3952 42.797 21.9999 43.8065 22H48.9525V22.6505C48.9523 24.3568 50.3551 25.7403 52.0861 25.7408H69.5755C70.2446 25.7422 70.8962 25.5308 71.4337 25.1379C71.5423 25.06 71.6454 24.9748 71.7421 24.8829C72.3607 24.3006 72.7102 23.4937 72.7091 22.6505V22H78.1935C79.2031 21.9997 80.1715 22.3949 80.8854 23.0987C81.5994 23.8025 82.0003 24.7571 82 25.7524Z" fill="#3F3D56"/>
<circle cx="49" cy="36" r="1" fill="#EDEDE3"/>
<path d="M71.2919 25C71.2003 25.0918 71.1028 25.177 71 25.2548C73.1436 29.1799 76.7712 31.9895 81 33V32.5985C76.8856 31.5886 73.3652 28.8332 71.2919 25Z" fill="#2659D9"/>
<path d="M63.417 26H63C66.0125 33.9889 72.8687 39.7024 81 41V40.5887C73.0829 39.3054 66.4003 33.7609 63.417 26Z" fill="#2659D9"/>
<path d="M55.407 26H55C58.4037 37.7945 68.6742 46.5742 81 48V47.6079C68.888 46.1885 58.7939 37.576 55.407 26Z" fill="#2659D9"/>
<path d="M47 42.4555H46.5445V42H46.4557V42.4555H46V42.5445H46.4557V43H46.5445V42.5445H47V42.4555Z" fill="#EDEDE3"/>
<path d="M63 31.4555H62.5445V31H62.4557V31.4555H62V31.5445H62.4557V32H62.5445V31.5445H63V31.4555Z" fill="#EDEDE3"/>
<path d="M49 52.4555H48.5445V52H48.4557V52.4555H48V52.5445H48.4557V53H48.5445V52.5445H49V52.4555Z" fill="#EDEDE3"/>
<path d="M60 45.4555H59.5445V45H59.4557V45.4555H59V45.5445H59.4557V46H59.5445V45.5445H60V45.4555Z" fill="#EDEDE3"/>
<path d="M75 49.4555H74.5445V49H74.4557V49.4555H74V49.5445H74.4557V50H74.5445V49.5445H75V49.4555Z" fill="#EDEDE3"/>
<circle cx="72.5" cy="38.5" r="0.5" fill="#FF6584"/>
<path d="M53.5718 50L53 50.0496C53.1788 50.6926 53.3199 51.3499 53.4232 52L54 51.9717C53.8967 51.313 53.7531 50.6502 53.5718 50Z" fill="#B8B8B5"/>
<path d="M53.3806 47L53 47.0952C53.2301 47.7207 53.436 48.3618 53.6107 49L54 48.9275C53.8218 48.2822 53.6125 47.634 53.3806 47Z" fill="#B8B8B5"/>
<path d="M52.2787 44L52 44.1396C52.256 44.7491 52.496 45.3745 52.7133 46L53 45.8822C52.78 45.2495 52.5387 44.6153 52.2787 44Z" fill="#B8B8B5"/>
<path d="M50.2141 40L50 40.1869C50.2726 40.7766 50.5342 41.3875 50.777 42L51 41.8328C50.755 41.2128 50.4901 40.5957 50.2141 40Z" fill="#B8B8B5"/>
<path d="M48.1673 37L48 37.2413C48.2849 37.8081 48.5621 38.4008 48.8241 39L49 38.7781C48.7361 38.1725 48.456 37.5733 48.1673 37Z" fill="#B8B8B5"/>
<path d="M45.2622 35L45 35.1513C45.5895 35.423 46.1671 35.7088 46.7172 36L47 35.8575C46.443 35.5628 45.8586 35.2743 45.2622 35Z" fill="#B8B8B5"/>
<path d="M42.204 33L42 33.1892C42.604 33.4452 43.2016 33.7181 43.7755 34L44 33.8197C43.4182 33.5349 42.8142 33.259 42.204 33Z" fill="#B8B8B5"/>
<path d="M40 31V31.4C40.2904 31.5923 40.5784 31.7938 40.8603 32L41 31.6938C40.6719 31.4538 40.3386 31.2226 40 31Z" fill="#B8B8B5"/>
<path d="M53.7871 78.9473C53.8353 78.6351 53.8794 78.3163 53.9183 78L54.2129 78.0422C54.1736 78.3621 54.129 78.6843 54.0803 79L53.7871 78.9473Z" fill="#B8B8B5"/>
<path d="M53 81.9027L53.3721 82C53.6056 81.3679 53.8169 80.7204 54 80.0753L53.6208 80C53.4394 80.6381 53.2318 81.2776 53 81.9027Z" fill="#B8B8B5"/>
<path d="M52 85.8574L52.2741 86C52.5348 85.3867 52.7787 84.7547 53 84.122L52.7181 84C52.4994 84.6258 52.258 85.251 52 85.8574Z" fill="#B8B8B5"/>
<path d="M50 88.8094L50.21 89C50.4869 88.4062 50.7526 87.7906 51 87.1713L50.7816 87C50.5375 87.6125 50.2739 88.221 50 88.8094Z" fill="#B8B8B5"/>
<path d="M48 91.7542L48.1647 92C48.4539 91.4257 48.7343 90.8283 49 90.2241L48.8259 90C48.5639 90.5972 48.2864 91.1872 48 91.7542Z" fill="#B8B8B5"/>
<path d="M45 93.846L45.2576 94C45.8559 93.7266 46.4409 93.4382 47 93.1452L46.7233 93C46.1706 93.2901 45.5906 93.5745 45 93.846Z" fill="#B8B8B5"/>
<path d="M42 95.8066L42.1999 96C42.8109 95.7423 43.4178 95.4676 44 95.1846L43.7812 95C43.2046 95.2807 42.6052 95.5522 42 95.8066Z" fill="#B8B8B5"/>
<path d="M41 97.3052C40.6726 97.546 40.338 97.7791 40 98V97.6043C40.2921 97.411 40.5819 97.2071 40.8657 97L41 97.3052Z" fill="#B8B8B5"/>
<path d="M53.8492 54.006L54.1463 54C54.1518 54.3346 54.1522 54.6711 54.1476 55L53.8505 54.9948C53.855 54.6696 53.8546 54.3369 53.8492 54.006Z" fill="#B8B8B5"/>
<path d="M41 61H71.4545C76.174 61 80 64.9538 80 69.831V71H49.5455C44.826 71 41 67.0462 41 62.169V61H41Z" fill="white"/>
<path d="M61.1511 113C61.1186 112.951 60.3519 111.782 60.0861 109.355C59.8422 107.127 59.999 103.373 62.1311 98.1358C66.1701 88.2146 61.2002 80.2096 61.1494 80.1299L61.3946 80C61.4075 80.0202 62.6899 82.0612 63.4475 85.3111C64.4485 89.6198 64.084 94.0998 62.3967 98.226C58.3646 108.13 61.3623 112.819 61.393 112.865L61.1511 113Z" fill="#EDEDE3"/>
<circle cx="59.5" cy="78.5" r="1.5" fill="#2659D9"/>
<circle cx="65.5" cy="84.5" r="1.5" fill="#EDEDE3"/>
<circle cx="61.5" cy="88.5" r="1.5" fill="#2659D9"/>
<circle cx="66.5" cy="92.5" r="1.5" fill="#2659D9"/>
<circle cx="60.5" cy="97.5" r="1.5" fill="#EDEDE3"/>
<path d="M62.2963 113C62.2963 113 60.4444 109 66 106L62.2963 113Z" fill="#EDEDE3"/>
<path d="M61 113C61 113 60.1991 108.966 54 109L61 113Z" fill="#EDEDE3"/>
<circle opacity="0.2" cx="53.5" cy="66.5" r="10.5" fill="#2659D9"/>
<circle opacity="0.2" cx="53.5" cy="66.5" r="7.5" fill="#2659D9"/>
<circle cx="54" cy="66" r="5" fill="#2659D9"/>
<path d="M55 64.9192C55.0001 64.4917 54.6794 64.1206 54.2262 64.0239C53.773 63.9272 53.3071 64.1305 53.1022 64.5144C52.8974 64.8982 53.0077 65.3612 53.3683 65.6312L53.0001 68H55L54.6317 65.6312C54.8649 65.457 55.0002 65.1954 55 64.9192Z" fill="white"/>
<path d="M102.134 29.6677C102.134 29.6677 99.2443 27.1487 95.3585 31.896C91.4727 36.6433 85.3949 38.9685 84 40.8093C84 40.8093 89.7789 38.4841 91.7716 37.5152C93.7643 36.5464 93.6647 36.7402 93.6647 36.7402C93.6647 36.7402 90.9745 38.5809 90.4763 40.4217C89.9781 42.2625 90.3767 43.8126 89.48 45.6534C88.5832 47.4942 106.617 46.9129 106.617 46.9129C106.617 46.9129 108.411 43.9095 107.913 40.8093C107.414 37.709 107.713 30.0552 102.134 29.6677Z" fill="#1F1F21"/>
<path d="M96.9623 37C96.9623 37 97.5931 41.537 94.8896 42.5556C92.1862 43.5741 93.1774 44.963 93.1774 44.963L97.2326 47L101.558 45.6111L103 43.3889C103 43.3889 100.657 42.8333 101.288 41.1667C101.919 39.5 102.099 38.9444 102.099 38.9444L96.9623 37Z" fill="#FFB9B9"/>
<path opacity="0.1" d="M96.9623 37C96.9623 37 97.5931 41.537 94.8896 42.5556C92.1862 43.5741 93.1774 44.963 93.1774 44.963L97.2326 47L101.558 45.6111L103 43.3889C103 43.3889 100.657 42.8333 101.288 41.1667C101.919 39.5 102.099 38.9444 102.099 38.9444L96.9623 37Z" fill="#1F1F21"/>
<path d="M107.982 50C107.982 50 107.302 58.0973 107.496 58.4493C107.69 58.8014 107.496 71.0353 107.496 71.0353C107.496 71.0353 108.856 77.6363 107.108 77.9884C105.36 78.3404 105.748 70.5952 105.748 70.5952L104 60.3856L104.194 50.264L107.982 50Z" fill="#FFB9B9"/>
<path opacity="0.1" d="M107.982 50C107.982 50 107.302 58.0973 107.496 58.4493C107.69 58.8014 107.496 71.0353 107.496 71.0353C107.496 71.0353 108.856 77.6363 107.108 77.9884C105.36 78.3404 105.748 70.5952 105.748 70.5952L104 60.3856L104.194 50.264L107.982 50Z" fill="#1F1F21"/>
<path d="M89.9595 75C89.9595 75 86.9096 86.1041 87.0021 91.5228C87.0945 96.9416 88.2959 104.492 88.2959 104.492C88.2959 104.492 88.4808 107.779 88.2035 108.135C87.9263 108.49 89.5898 110 89.5898 110L91.3458 109.023L91.9927 108.312V107.69C91.9927 107.69 90.9761 104.67 91.8079 102.272C92.6397 99.8731 93.1018 93.8325 92.27 91.967L98 75.6218L89.9595 75Z" fill="#FFB9B9"/>
<path d="M89.7509 108.036C89.7509 108.036 88.6971 106.629 87.9946 107.098C87.2921 107.567 86.1505 110.756 86.1505 110.756C86.1505 110.756 82.1989 114.79 85.0089 114.978C87.819 115.165 89.0484 114.133 89.3996 113.383C89.7509 112.633 93 110.663 93 110.663C93 110.663 92.6487 107.098 92.1219 107.004C91.595 106.91 90.8047 108.411 90.8047 108.411L89.7509 108.036Z" fill="#1F1F21"/>
<path d="M100.223 75.6812V86.7633C100.233 88.108 100.321 89.4509 100.485 90.785C100.748 92.7512 99 107.408 99 107.408L99.1748 110L101.359 109.821L101.621 107.587L104.767 97.756C104.767 97.756 105.816 91.7681 105.291 89.5338C104.767 87.2995 108 73 108 73L100.223 75.6812Z" fill="#FFB9B9"/>
<path d="M98.1911 109.069L98.856 108.919C98.856 108.919 99.3582 107.764 99.9867 108.044C100.429 108.255 100.848 108.516 101.236 108.821L101.513 109.348C101.513 109.348 102.142 110.746 102.95 111.678C103.758 112.61 104.655 114.661 103.309 114.847C101.962 115.034 100.166 115.127 99.6276 114.661C99.0889 114.195 99.448 113.449 98.9093 113.263C98.3706 113.076 97.9217 112.517 98.0115 112.331C98.1013 112.144 98.1911 109.069 98.1911 109.069Z" fill="#1F1F21"/>
<circle cx="100" cy="36" r="4" fill="#FFB9B9"/>
<path d="M92 43.4104L93.2287 43C93.2287 43 92.7442 43.7663 95.3488 44.2113C97.9535 44.6562 100.651 44.8137 101.86 43.3557C101.86 43.3557 102.326 43.1434 102.977 43.7663C103.628 44.3893 104 44.2113 104 44.2113L103.535 46.525L102.605 50.7964L101.395 54L97.9535 53.2881L94.2326 50.7074L92.8372 47.2369V44.0333L92 43.4104Z" fill="#2659D9"/>
<path d="M103.78 44.3258L104.697 43.7024C104.697 43.7024 107.817 44.2368 108 45.6617L105.615 50.1146C106.101 51.3536 106.068 52.7283 105.523 53.9441C104.606 55.9924 104.697 56.4377 104.697 56.4377L104.055 59.1094L92.4037 60C92.4037 60 91.945 58.9313 91.7615 58.7532C91.578 58.5751 91.578 57.9517 91.7615 57.9517C91.945 57.9517 91.7615 57.6845 91.578 57.4173C91.3945 57.1502 91.3028 57.0611 91.578 56.7049C91.8532 56.3486 91.1193 53.1426 91.1193 53.1426V49.6693L88 45.6617C88 45.6617 89.1009 44.0587 89.6514 43.8805C90.2018 43.7024 92.8203 43 92.8203 43L93.4128 43.8469L94.2385 50.2927L95.4312 54.2112L100.453 53.383L102.404 50.2036L103.688 46.4632L103.78 44.3258Z" fill="#2659D9"/>
<path d="M106.956 46L107.581 46.4963C107.581 46.4963 108.128 51.1288 107.972 51.4597C107.816 51.7905 105.08 52.1214 105.002 51.956C104.924 51.7906 106.956 46 106.956 46Z" fill="#2659D9"/>
<path d="M92.3902 43.3557L93.2751 49.2239C93.2751 49.2239 92.4787 57.9375 92.6557 59.7157L92.8327 60.2492C92.8327 60.2492 92.4787 60.0714 92.3902 60.427C92.3017 60.7827 92.3902 61.9386 92.3902 61.9386C92.3902 61.9386 91.8593 62.472 91.6823 65.4062C91.5053 68.3403 89.3816 75.3645 90.178 75.6312C90.9744 75.898 95.7528 77.2317 98.3189 76.9649C100.885 76.6982 110.088 73.5862 109.999 72.786C109.911 71.9858 105.486 60.6938 105.486 60.6938C105.486 60.6938 104.69 59.3601 104.69 59.1822C104.69 59.0044 105.752 58.2931 105.486 57.5818C105.221 56.8705 103.805 49.4018 103.805 49.4018L104.779 44.067L103.451 43.7113L102.478 48.8683C102.478 48.8683 98.6729 50.7355 94.6909 49.0461L93.806 43L92.3902 43.3557Z" fill="#1F1F21"/>
<path d="M96 33.8533C96 33.8533 102.77 38.5791 104.599 36.4478C106.429 34.3166 101.398 32.4633 101.398 32.4633L97.1893 32L96 33.8533Z" fill="#1F1F21"/>
<path fill-rule="evenodd" clip-rule="evenodd" d="M91.0295 82.0721C89.817 83.373 87.8569 83.54 86.4544 82.4619L73.193 94L71.844 92.3467L73.169 91.1938L72.0526 89.8255L72.6047 89.3451L71.9999 88.604L71.5582 88.9882L71 88.3041L72.2146 87.2473L72.5868 87.7034L73.415 86.9828L73.0428 86.5267L73.8158 85.8542L74.4205 86.5954L73.9236 87.0277L74.5284 87.7689L75.0718 87.3936L76.2813 88.8759L85.3651 81.0658C84.6433 79.4212 85.2184 77.479 86.7074 76.5325C88.1963 75.5859 90.1346 75.9302 91.2316 77.3362C92.3286 78.7422 92.242 80.7712 91.0295 82.0721ZM90.7164 78.8684C90.4352 77.9539 89.6482 77.3044 88.7224 77.2227C87.4583 77.1112 86.3459 78.079 86.2379 79.3844C86.1588 80.3404 86.6452 81.2514 87.4702 81.6927C88.2953 82.134 89.2965 82.0187 90.0071 81.4004C90.7176 80.7822 90.9976 79.7829 90.7164 78.8684Z" fill="#2659D9"/>
<path d="M87.0182 51C87.0182 51 87.698 59.0973 87.5038 59.4493C87.3095 59.8014 87.5038 72.0353 87.5038 72.0353C87.5038 72.0353 86.1441 78.6363 87.8922 78.9884C89.6404 79.3404 89.2519 71.5952 89.2519 71.5952L91 61.3856L90.8058 51.264L87.0182 51Z" fill="#FFB9B9"/>
<path d="M88.8678 46L88.1084 46.2557C88.1084 46.2557 86.6847 51.6243 87.0644 51.6243C87.444 51.6243 92 52.1357 92 51.9652C92 51.7948 91.1458 47.6191 91.1458 47.6191L88.8678 46Z" fill="#2659D9"/>
</svg>
