<svg xmlns="http://www.w3.org/2000/svg" width="16" height="20" viewBox="0 0 16 20" fill="none">
  <path d="M15.5 8H14V6C14 4.4087 13.3679 2.88258 12.2426 1.75736C11.1174 0.632141 9.5913 0 8 0C6.4087 0 4.88258 0.632141 3.75736 1.75736C2.63214 2.88258 2 4.4087 2 6V8H0.5C0.367392 8 0.240215 8.05268 0.146447 8.14645C0.0526785 8.24021 0 8.36739 0 8.5V19.5C0 19.6326 0.0526785 19.7598 0.146447 19.8536C0.240215 19.9473 0.367392 20 0.5 20H15.5C15.6326 20 15.7598 19.9473 15.8536 19.8536C15.9473 19.7598 16 19.6326 16 19.5V8.5C16 8.36739 15.9473 8.24021 15.8536 8.14645C15.7598 8.05268 15.6326 8 15.5 8ZM3 6C3 4.67392 3.52678 3.40215 4.46447 2.46447C5.40215 1.52678 6.67392 1 8 1C9.32608 1 10.5979 1.52678 11.5355 2.46447C12.4732 3.40215 13 4.67392 13 6V8H3V6ZM15 19H1V18H15V19ZM15 17H1V9H15V17ZM7.5 14.92V15.5C7.5 15.6326 7.55268 15.7598 7.64645 15.8536C7.74021 15.9473 7.86739 16 8 16C8.13261 16 8.25979 15.9473 8.35355 15.8536C8.44732 15.7598 8.5 15.6326 8.5 15.5V14.9C8.97133 14.7783 9.3821 14.4889 9.6553 14.086C9.92851 13.6831 10.0454 13.1944 9.98406 12.7115C9.92272 12.2286 9.68737 11.7846 9.32212 11.4628C8.95686 11.141 8.48679 10.9635 8 10.9635C7.51321 10.9635 7.04314 11.141 6.67788 11.4628C6.31263 11.7846 6.07728 12.2286 6.01594 12.7115C5.9546 13.1944 6.07149 13.6831 6.3447 14.086C6.61791 14.4889 7.02867 14.7783 7.5 14.9V14.92ZM8 12C8.19778 12 8.39112 12.0586 8.55557 12.1685C8.72002 12.2784 8.84819 12.4346 8.92388 12.6173C8.99957 12.8 9.01937 13.0011 8.98079 13.1951C8.9422 13.3891 8.84696 13.5673 8.70711 13.7071C8.56725 13.847 8.38907 13.9422 8.19509 13.9808C8.00111 14.0194 7.80004 13.9996 7.61732 13.9239C7.43459 13.8482 7.27841 13.72 7.16853 13.5556C7.05865 13.3911 7 13.1978 7 13C7 12.7348 7.10536 12.4804 7.29289 12.2929C7.48043 12.1054 7.73478 12 8 12Z" fill="#2659D9"/>
</svg>