<svg width="78" height="28" viewBox="0 0 78 28" fill="none" xmlns="http://www.w3.org/2000/svg">
<g id="Group 4">
<g id="Group 3">
<path id="Fill 1" fill-rule="evenodd" clip-rule="evenodd" d="M21.1327 19.0375C21.1199 19.2209 20.9996 19.248 20.7751 19.248H17.2896V22.1351H20.4036C20.5896 22.1351 20.6693 22.2138 20.6693 22.3728V22.8466C20.6693 23.0311 20.603 23.0832 20.4175 23.0832H17.2896V27.0916C17.2896 27.3155 17.2234 27.3676 17.0256 27.3676H16.3361C16.1239 27.3676 16.0576 27.3293 16.0576 27.0778V18.5488C16.0576 18.3649 16.1239 18.2856 16.3094 18.2856H20.9734C21.1198 18.2856 21.1861 18.351 21.1861 18.484V18.5228L21.1327 19.0375Z" fill="#2659D9"/>
<path id="Fill 2" fill-rule="evenodd" clip-rule="evenodd" d="M23.0018 27.3676H22.3925C22.2193 27.3676 22.1268 27.2756 22.1268 27.0916V21.2653C22.1268 21.0808 22.2193 21.001 22.3925 21.001H23.0018C23.1739 21.001 23.2536 21.0808 23.2536 21.2653V27.0916C23.2536 27.2756 23.1739 27.3676 23.0018 27.3676ZM22.6838 20.0785C22.3257 20.0785 22.0082 19.8281 22.0082 19.4453C22.0082 19.0635 22.3257 18.812 22.6838 18.812C23.0419 18.812 23.3727 19.0635 23.3727 19.4453C23.3727 19.8281 23.028 20.0785 22.6838 20.0785Z" fill="#2659D9"/>
<path id="Fill 3" fill-rule="evenodd" clip-rule="evenodd" d="M30.2769 27.3676H29.6537C29.4816 27.3676 29.403 27.2756 29.403 27.0911V23.3995C29.403 22.4643 29.1641 21.7917 28.1042 21.7917C27.4943 21.7917 26.7396 22.1352 26.2751 22.5573V27.0911C26.2751 27.2756 26.1955 27.3676 26.0233 27.3676H25.4001C25.2408 27.3676 25.1484 27.2756 25.1484 27.1044V21.2653C25.1484 21.0808 25.2152 21.001 25.4001 21.001H25.9838C26.1425 21.001 26.2355 21.067 26.2355 21.2387L26.2484 21.6471C26.8577 21.1329 27.6525 20.8559 28.4222 20.8559C29.946 20.8559 30.5286 21.78 30.5286 23.2156V27.0911C30.5286 27.2756 30.4629 27.3676 30.2769 27.3676Z" fill="#2659D9"/>
<path id="Fill 4" fill-rule="evenodd" clip-rule="evenodd" d="M36.453 22.702C36.1339 22.1091 35.4845 21.7534 34.849 21.7534C33.8292 21.7534 33.0605 22.6493 33.0605 24.2173C33.0605 25.6683 33.7356 26.5642 34.6897 26.5642C35.5379 26.5642 36.2141 25.8916 36.453 25.2334V22.702ZM37.9496 27.3676H37.3937C36.8106 27.3676 36.5316 26.9204 36.5316 26.393H36.5054C36.2002 26.972 35.3263 27.5 34.5176 27.5C32.6891 27.5 31.8804 25.9575 31.8804 24.2965C31.8804 22.0953 33.1926 20.8559 34.7036 20.8559C35.3658 20.8559 36.0815 21.1329 36.4787 21.6604L36.4926 21.2249C36.4926 21.0675 36.5984 21.001 36.7443 21.001H37.3403C37.5001 21.001 37.5787 21.0813 37.5787 21.2515V25.8656C37.5787 26.1686 37.5915 26.3802 37.6444 26.4584C37.6984 26.5504 37.7641 26.5764 37.87 26.5764H37.9624C38.0822 26.5764 38.1484 26.6036 38.1484 26.7482V27.1975C38.1484 27.3299 38.0822 27.3676 37.9496 27.3676Z" fill="#2659D9"/>
<path id="Fill 5" fill-rule="evenodd" clip-rule="evenodd" d="M44.5485 27.3676H43.9269C43.7548 27.3676 43.6741 27.2756 43.6741 27.0911V23.3995C43.6741 22.4643 43.4357 21.7917 42.3763 21.7917C41.767 21.7917 41.0123 22.1352 40.5467 22.5573V27.0911C40.5467 27.2756 40.4671 27.3676 40.2961 27.3676H39.6734C39.5135 27.3676 39.4211 27.2756 39.4211 27.1044V21.2653C39.4211 21.0808 39.4874 21.001 39.6734 21.001H40.256C40.4152 21.001 40.5077 21.067 40.5077 21.2387L40.5216 21.6471C41.1304 21.1329 41.9252 20.8559 42.6938 20.8559C44.2182 20.8559 44.8008 21.78 44.8008 23.2156V27.0911C44.8008 27.2756 44.7345 27.3676 44.5485 27.3676Z" fill="#2659D9"/>
<path id="Fill 6" fill-rule="evenodd" clip-rule="evenodd" d="M51.0561 27.1177C50.4874 27.3809 49.8775 27.4995 49.2677 27.4995C47.1874 27.4995 46.1799 26.1559 46.1799 24.1912C46.1799 22.2532 47.3584 20.8559 49.3462 20.8559C49.9171 20.8559 50.5788 21.0016 51.0427 21.2387C51.1352 21.2786 51.1758 21.3312 51.1758 21.4099C51.1758 21.4487 51.1625 21.4759 51.1486 21.5152L51.0427 21.9379C51.0166 22.0294 50.9765 22.0948 50.8968 22.0948C50.8706 22.0948 50.8183 22.082 50.7782 22.0554C50.3666 21.8714 49.9171 21.7268 49.4002 21.7268C48.141 21.7268 47.3456 22.6621 47.3456 24.1386C47.3456 25.4827 47.9293 26.6429 49.3462 26.6429C49.9171 26.6429 50.4067 26.5116 50.8311 26.3271C50.8706 26.3143 50.9107 26.3005 50.9374 26.3005C51.0032 26.3005 51.0427 26.3398 51.0689 26.4313L51.1881 26.8019C51.202 26.854 51.2159 26.9061 51.2159 26.9465C51.2159 27.0257 51.1758 27.064 51.0561 27.1177Z" fill="#2659D9"/>
<path id="Fill 7" fill-rule="evenodd" clip-rule="evenodd" d="M53.2961 27.3676H52.6868C52.5147 27.3676 52.4222 27.2756 52.4222 27.0916V21.2653C52.4222 21.0808 52.5147 21.001 52.6868 21.001H53.2961C53.4682 21.001 53.5489 21.0808 53.5489 21.2653V27.0916C53.5489 27.2756 53.4682 27.3676 53.2961 27.3676ZM52.9781 20.0785C52.6205 20.0785 52.303 19.8281 52.303 19.4453C52.303 19.0635 52.6205 18.812 52.9781 18.812C53.3357 18.812 53.6676 19.0635 53.6676 19.4453C53.6676 19.8281 53.3218 20.0785 52.9781 20.0785Z" fill="#2659D9"/>
<path id="Fill 8" fill-rule="evenodd" clip-rule="evenodd" d="M59.6042 22.702C59.2862 22.1091 58.6363 21.7534 58.0002 21.7534C56.9799 21.7534 56.2118 22.6493 56.2118 24.2173C56.2118 25.6683 56.8874 26.5642 57.842 26.5642C58.6892 26.5642 59.3653 25.8916 59.6042 25.2334V22.702ZM61.1008 27.3676H60.545C59.9613 27.3676 59.6828 26.9204 59.6828 26.393H59.6566C59.3525 26.972 58.4775 27.5 57.6688 27.5C55.8408 27.5 55.0316 25.9575 55.0316 24.2965C55.0316 22.0953 56.3438 20.8559 57.8548 20.8559C58.5165 20.8559 59.2328 21.1329 59.6299 21.6604L59.6433 21.2249C59.6433 21.0675 59.7502 21.001 59.8956 21.001H60.4915C60.6503 21.001 60.7299 21.0813 60.7299 21.2515V25.8656C60.7299 26.1686 60.7438 26.3802 60.7967 26.4584C60.8496 26.5504 60.9159 26.5764 61.0223 26.5764H61.1147C61.2345 26.5764 61.2997 26.6036 61.2997 26.7482V27.1975C61.2997 27.3299 61.2345 27.3676 61.1008 27.3676Z" fill="#2659D9"/>
<path id="Fill 9" fill-rule="evenodd" clip-rule="evenodd" d="M63.4606 27.3676H62.8112C62.653 27.3676 62.5723 27.2894 62.5723 27.1044V18.3505C62.5723 18.166 62.6124 18.1144 62.7716 18.0878L63.4339 17.9948H63.4996C63.6188 17.9948 63.699 18.049 63.699 18.2192V27.0911C63.699 27.2756 63.6188 27.3676 63.4606 27.3676Z" fill="#2659D9"/>
<path id="Fill 17" fill-rule="evenodd" clip-rule="evenodd" d="M65.5094 26.1171H65.4351V26.4515H65.5286C65.6393 26.4515 65.7195 26.3935 65.7195 26.2814C65.7195 26.1601 65.642 26.1171 65.5094 26.1171ZM65.8846 26.9364H65.7836C65.7601 26.9364 65.7542 26.9263 65.743 26.9072L65.5463 26.5653H65.4351V26.9024C65.4351 26.9231 65.4324 26.9364 65.4084 26.9364H65.3175C65.2935 26.9364 65.2908 26.9263 65.2908 26.9024V26.0352C65.2908 26.0086 65.2961 26.0006 65.3229 26.0006H65.5196C65.7141 26.0006 65.8659 26.0666 65.8659 26.2792C65.8659 26.4063 65.7863 26.4988 65.6826 26.5387L65.8958 26.8912C65.9012 26.8992 65.906 26.9093 65.906 26.921C65.906 26.9284 65.9012 26.9364 65.8846 26.9364ZM65.5629 25.68C65.1203 25.68 64.7771 26.0299 64.7771 26.4648C64.7771 26.8992 65.1203 27.2491 65.5629 27.2491C66.0049 27.2491 66.348 26.8992 66.348 26.4648C66.348 26.0299 66.0049 25.68 65.5629 25.68ZM65.5629 27.4133C65.0219 27.4133 64.6002 26.9864 64.6002 26.4627C64.6002 25.9347 65.0246 25.5157 65.5629 25.5157C66.0984 25.5157 66.5244 25.9347 66.5244 26.4627C66.5244 26.989 66.0952 27.4133 65.5629 27.4133Z" fill="#2659D9"/>
</g>
<path id="Fill 10" fill-rule="evenodd" clip-rule="evenodd" d="M6.12381 3.1019C4.4389 3.1019 3.29439 4.58713 3.29439 7.44034C3.29439 10.4866 4.34151 11.8159 6.18312 11.8159C7.88779 11.8159 8.99276 10.4465 8.99276 7.45855C8.99276 4.35623 7.96541 3.1019 6.12381 3.1019ZM6.085 14.4185C2.19016 14.4185 0 11.6608 0 7.51755C0 3.39108 2.34466 0.5 6.20216 0.5C10.2537 0.5 12.2872 3.48868 12.2872 7.40173C12.2872 11.7387 9.72794 14.4185 6.085 14.4185Z" fill="#2659D9"/>
<path id="Fill 11" fill-rule="evenodd" clip-rule="evenodd" d="M22.3248 14.168H20.5425C20.1347 14.168 19.9794 13.9553 19.9794 13.5903V8.46231C19.9794 7.65231 19.7663 7.11183 18.8759 7.11183C18.2359 7.11183 17.4414 7.40174 16.8989 7.86428V13.6086C16.8989 13.975 16.7443 14.168 16.357 14.168H14.5344C14.2056 14.168 13.9918 13.9939 13.9918 13.6479V5.33887C13.9918 4.97247 14.1266 4.78017 14.5542 4.78017H16.1432C16.4346 4.78017 16.647 4.85738 16.685 5.18517L16.7238 5.59017C17.615 4.89526 18.6819 4.50993 19.8249 4.50993C21.9565 4.50993 22.8872 5.84001 22.8872 7.94149V13.5903C22.8872 13.975 22.751 14.168 22.3248 14.168Z" fill="#2659D9"/>
<path id="Fill 12" fill-rule="evenodd" clip-rule="evenodd" d="M29.476 6.7265C28.5065 6.7265 27.8672 7.49862 27.7318 8.40477H30.9683C30.9683 7.57583 30.4828 6.7265 29.476 6.7265ZM33.1189 10.2353H27.6937C27.9251 11.451 29.011 12.1248 30.1928 12.1248C31.0452 12.1248 31.8587 11.931 32.6349 11.6236C32.7118 11.585 32.7894 11.5646 32.8663 11.5646C33.042 11.5646 33.138 11.6819 33.1768 11.8363C33.2551 12.1634 33.5451 13.0499 33.5451 13.3383C33.5451 13.5896 33.3715 13.6668 33.1768 13.763C32.1494 14.2255 30.7948 14.4178 29.67 14.4178C26.5872 14.4178 24.6314 12.5298 24.6314 9.44495C24.6314 6.45699 26.6663 4.491 29.6495 4.491C30.8899 4.491 31.9356 4.95354 32.6547 5.7242C33.6227 6.74544 33.816 8.07626 33.816 9.42528V9.67658C33.816 10.1391 33.6037 10.2353 33.1189 10.2353Z" fill="#2659D9"/>
<path id="Fill 13" fill-rule="evenodd" clip-rule="evenodd" d="M49.9205 14.168H47.9829C47.4791 14.168 47.3627 13.9167 47.3429 13.3777L47.1313 6.76585H47.0925L44.1657 13.7426C44.0097 14.1294 43.7586 14.168 43.506 14.168H42.7891C42.4208 14.168 42.2069 14.109 42.0144 13.7251L38.6614 6.76585H38.6226L38.5069 13.57C38.5069 14.109 38.2543 14.168 37.8471 14.168H36.2581C35.8122 14.168 35.5999 14.0143 35.5999 13.6086V13.5525L36.1212 1.40545C36.1417 0.943631 36.3548 0.788479 36.7239 0.788479H38.1195C38.5647 0.788479 38.7383 0.943631 38.9125 1.31002L43.1955 10.0233H43.2358L47.1108 1.31002C47.2668 0.981509 47.4791 0.788479 47.9053 0.788479H49.2622C49.6488 0.788479 49.7857 0.923236 49.8055 1.27142L50.4433 13.57V13.629C50.4433 13.9939 50.2697 14.168 49.9205 14.168Z" fill="#2659D9"/>
<path id="Fill 14" fill-rule="evenodd" clip-rule="evenodd" d="M58.3501 7.55616C58.0016 7.24658 57.3623 6.89986 56.7816 6.89986C55.8297 6.89986 54.94 7.67125 54.94 9.46388C54.94 10.6592 55.249 12.0862 56.7223 12.0862C57.4194 12.0862 58.1165 11.5654 58.3501 11.2769V7.55616ZM61.6445 14.168H60.6164C59.4741 14.168 59.0099 13.8395 58.7572 13.2815H58.7184C58.1956 13.8781 56.9544 14.4186 56.0047 14.4186C53.2141 14.4186 51.9166 12.2217 51.9166 9.65691C51.9166 6.24501 54.0489 4.50993 56.179 4.50993C57.2642 4.50993 58.1378 5.01108 58.5434 5.58944L58.6027 5.1655C58.6218 4.95353 58.796 4.78017 59.0479 4.78017H60.7922C61.0638 4.78017 61.2571 4.93387 61.2571 5.24199V11.8939C61.2571 12.0862 61.3348 12.2217 61.5478 12.2217H61.7031C61.974 12.2217 62.1102 12.3178 62.1102 12.607V13.7258C62.1102 14.0136 61.9162 14.168 61.6445 14.168Z" fill="#2659D9"/>
<path id="Fill 15" fill-rule="evenodd" clip-rule="evenodd" d="M66.1397 14.168H64.3963C63.9891 14.168 63.7951 14.0333 63.7951 13.6093V5.28135C63.7951 4.89529 64.047 4.7802 64.3963 4.7802H66.1397C66.5081 4.7802 66.7014 4.87635 66.7014 5.28135V13.6093C66.7014 13.9939 66.5278 14.168 66.1397 14.168ZM65.2296 3.66209C64.4929 3.66209 63.6596 3.14054 63.6596 2.21618C63.6596 1.26997 64.4336 0.730946 65.2296 0.730946C66.0057 0.730946 66.779 1.26997 66.779 2.19652C66.779 3.12233 65.9662 3.66209 65.2296 3.66209Z" fill="#2659D9"/>
<path id="Fill 16" fill-rule="evenodd" clip-rule="evenodd" d="M77.4384 14.168H75.6553C75.2482 14.168 75.0937 13.9553 75.0937 13.5903V8.46231C75.0937 7.65231 74.8799 7.11183 73.9887 7.11183C73.3487 7.11183 72.5542 7.40174 72.0109 7.86428V13.6086C72.0109 13.975 71.8564 14.168 71.469 14.168H69.6472C69.3177 14.168 69.1053 13.9939 69.1053 13.6479V5.33887C69.1053 4.97247 69.2401 4.78017 69.6677 4.78017H71.2567C71.5474 4.78017 71.7598 4.85738 71.7986 5.18517L71.8374 5.59017C72.7278 4.89526 73.7954 4.50993 74.9377 4.50993C77.0693 4.50993 78 5.84001 78 7.94149V13.5903C78 13.975 77.8638 14.168 77.4384 14.168Z" fill="#2659D9"/>
</g>
</svg>
